<?xml version="1.0" encoding="utf-8"?>
<!-- Generator: Adobe Illustrator 26.0.0, SVG Export Plug-In . SVG Version: 6.00 Build 0)  -->
<svg version="1.1" id="Layer_1" xmlns="http://www.w3.org/2000/svg" xmlns:xlink="http://www.w3.org/1999/xlink" x="0px" y="0px"
	 viewBox="0 0 512 512" style="enable-background:new 0 0 512 512;" xml:space="preserve">
<style type="text/css">
	.st0{fill:none;stroke:#FFFFFF;stroke-width:6;stroke-miterlimit:10;}
	.st1{fill:none;stroke:#FFFFFF;stroke-width:6;stroke-miterlimit:10;}
	.st2{fill:none;stroke:#FFFFFF;stroke-width:6;stroke-miterlimit:10;}
	.st3{fill:none;stroke:#FFFFFF;stroke-width:3;stroke-miterlimit:10;}
</style>
<polyline class="st0" points="289.6,347.6 228.9,83.3 484.7,195.8 "/>
<path class="st1" d="M232.5,86.6"/>
<line class="st0" x1="444.4" y1="345.4" x2="519.2" y2="441.4"/>
<line class="st0" x1="495.6" y1="305.5" x2="648.1" y2="501.6"/>
<line class="st0" x1="385.8" y1="387.9" x2="538.3" y2="584.1"/>
<line class="st0" x1="557.8" y1="692.4" x2="289.6" y2="347.6"/>
<line class="st0" x1="484.7" y1="195.8" x2="753" y2="540.8"/>
<polygon class="st2" points="358.6,141.3 261,217.1 232.5,86.6 "/>
<path class="st3" d="M179.9,236.5C89.1,252,40.4,251,33.5,233.6c-9-23.1,54.8-74.7,191.5-155.3"/>
<path class="st1" d="M357.3,350.8"/>
<path class="st0" d="M292.9,347.5c18.8,25.2,53.3,25.7,68.9,9c13.1-14,13.7-40.5-2.9-59.8"/>
<path class="st0" d="M416.6,251.3c18.8,25.2,53.3,25.7,68.9,9c13.1-14,13.7-40.5-2.9-59.8"/>
<path class="st0" d="M358.8,296.3c19,25.2,50.8,27.7,64.3,12.6c11.3-12.6,10.2-37.9-6.1-57.1"/>
<line class="st3" x1="217.9" y1="215.5" x2="192.5" y2="296.8"/>
<line class="st3" x1="189.4" y1="310.2" x2="179.7" y2="340.8"/>
</svg>
