<?xml version="1.0" encoding="UTF-8"?>
<svg width="112px" height="42px" viewBox="0 0 112 42" version="1.1" xmlns="http://www.w3.org/2000/svg" xmlns:xlink="http://www.w3.org/1999/xlink">
    <!-- Generator: Sketch 53.2 (72643) - https://sketchapp.com -->
    <title>Bravo_logo_footer</title>
    <desc>Created with Sketch.</desc>
    <g id="Style" stroke="none" stroke-width="1" fill="none" fill-rule="evenodd">
        <g id="Icons" transform="translate(-121.000000, -1976.000000)">
            <g id="Bravo_logo_footer" transform="translate(121.000000, 1976.000000)">
                <rect id="Rectangle" fill="#FFFFFF" fill-rule="nonzero" x="29.1830986" y="40.2253521" width="14.1971831" height="1.57746479"></rect>
                <path d="M100.814828,0.211538028 C100.686265,0.0837633803 100.51511,0.00883380282 100.33449,0.000946478873 L94.4048,0.000946478873 C93.9828282,-0.0171943662 93.7462085,0.219425352 93.7643493,0.641397183 L93.7643493,6.57108732 C93.7714479,6.75170704 93.8471662,6.92286197 93.9749408,7.05142535 L95.9333634,9.00905915 L102.772462,2.16917183 L100.814828,0.211538028 Z" id="Fill-1" fill="#00A6DE"></path>
                <path d="M111.139966,0.000867605634 L105.210276,0.000867605634 C105.029656,0.00875492958 104.858501,0.083684507 104.730727,0.211459155 L102.773093,2.16988169 L109.612192,9.00898028 L111.570614,7.05134648 C111.698389,6.9227831 111.773318,6.7524169 111.780417,6.57100845 L111.780417,0.64131831 C111.798558,0.219346479 111.561938,-0.016484507 111.139966,0.000867605634" id="Fill-4" fill="#ED1C24"></path>
                <polygon id="Fill-7" fill="#5C2D91" points="95.932969 9.00929577 102.772856 15.8483944 109.611955 9.00929577 102.772856 2.16940845"></polygon>
                <path d="M14.2275493,16.2254085 C15.2844507,16.2254085 16.1078873,15.9359437 16.6978592,15.3546479 C17.2886197,14.7757183 17.5836056,14.0193239 17.5836056,13.0870423 C17.5836056,12.4868169 17.4171831,11.9843944 17.0867042,11.5797746 C16.7546479,11.1759437 16.1228732,10.9740282 15.1905915,10.9740282 L12.4883944,10.9740282 L11.431493,16.2254085 L14.2275493,16.2254085 Z M13.1406761,26.044338 C13.6998873,26.044338 14.196,25.9465352 14.632169,25.7485634 C15.0667606,25.552169 15.439831,25.2879437 15.7505915,24.9558873 C16.0613521,24.6254085 16.2940282,24.2468169 16.4494085,23.8216901 C16.6055775,23.3981408 16.6828732,22.9572394 16.6828732,22.5021408 C16.6828732,21.776507 16.4856901,21.1810141 16.0921127,20.715662 C15.6985352,20.2487324 14.9729014,20.0160563 13.9167887,20.0160563 L10.6853521,20.0160563 L9.47385915,26.044338 L13.1406761,26.044338 Z M4.31633803,26.1997183 L7.39239437,10.8186479 L4.65628169,10.8186479 C4.44884507,10.8186479 4.26270423,10.6900845 4.18935211,10.4960563 L3.71532394,9.2411831 C3.65538028,9.08028169 3.67904225,8.90360563 3.78157746,8.76715493 C4.04185915,8.42169014 4.54901408,7.74732394 4.81797183,7.38371831 C4.91261972,7.25594366 5.05853521,7.18338028 5.21707042,7.18338028 L16.3405634,7.18338028 C17.6869296,7.18338028 18.7903662,7.36005634 19.6500845,7.71104225 C20.5090141,8.0628169 21.1825915,8.49740845 21.6692394,9.01402817 C22.1558873,9.53143662 22.4871549,10.0898592 22.6630423,10.6892958 C22.8397183,11.2895211 22.9280563,11.8376901 22.9280563,12.3345915 C22.9280563,13.5957746 22.5912676,14.7134085 21.9184789,15.6851268 C21.2449014,16.6568451 20.3804507,17.3919437 19.3227606,17.8872676 C19.6753239,18.0331831 20.0176338,18.2303662 20.3489014,18.4788169 C20.680169,18.7280563 20.9704225,19.0285634 21.2188732,19.3811268 C21.4673239,19.7329014 21.6692394,20.1532958 21.8246197,20.6407324 C21.9807887,21.128169 22.0572958,21.6826479 22.0572958,22.3049577 C22.0572958,23.3642254 21.8506479,24.3485634 21.4365634,25.2611268 C21.0224789,26.1736901 20.4317183,26.9718873 19.6650704,27.6572958 C18.8984225,28.3411268 17.9724507,28.8758873 16.8847887,29.26 C15.796338,29.6425352 14.5801127,29.8341972 13.2329577,29.8341972 L0.930309859,29.8341972 C0.721295775,29.8341972 0.534366197,29.7040563 0.461802817,29.5084507 L0.0303661972,28.3419155 C-0.024056338,28.1920563 -0.00512676056,28.0256338 0.0832112676,27.8931268 L1.05650704,26.4229296 C1.14878873,26.2833239 1.30574648,26.1997183 1.47295775,26.1997183 L4.31633803,26.1997183 Z" id="Fill-9" fill="#ED1C24"></path>
                <path d="M27.8066028,16.6601577 L26.2038986,16.6601577 C26.0224901,16.6601577 25.8552789,16.5615662 25.7677296,16.4022423 L25.1028282,15.1994254 C24.9924056,15.0006648 25.0310535,14.7522141 25.1966873,14.5952563 L26.4192225,13.4405521 C26.5115042,13.3537915 26.6337577,13.3048901 26.7615324,13.3048901 L32.9649127,13.3048901 L32.4356732,16.4432563 C33.0777014,15.2207211 33.7978141,14.3917634 34.5952225,13.9571718 C35.392631,13.5217915 36.1229972,13.3048901 36.7855324,13.3048901 C37.2414197,13.3048901 37.6357859,13.3411718 37.9662648,13.4137352 C38.2983211,13.4862986 38.6508845,13.6259042 39.0239549,13.8333408 L37.5947718,17.9962704 C37.2832225,17.8716507 36.9977014,17.7785803 36.7397859,17.7162704 C36.480293,17.6547493 36.1750535,17.6239887 35.8224901,17.6239887 C35.3666028,17.6239887 34.9272789,17.7281014 34.5029408,17.9347493 C34.0770254,18.1413972 33.6795042,18.4829183 33.3064338,18.9601014 C32.9333634,19.4372845 32.5965746,20.0580169 32.2968563,20.8238761 C31.9963493,21.5897352 31.7321239,22.5330592 31.5041803,23.6514817 L30.261138,29.8343549 L25.165138,29.8343549 L27.8066028,16.6601577 Z" id="Fill-12" fill="#ED1C24"></path>
                <path d="M85.4175887,26.3079324 C86.1842366,26.3079324 86.8207437,26.0444958 87.3286873,25.5160451 C87.8350535,24.9875944 88.2444056,24.3605521 88.5559549,23.635707 C88.8667155,22.910862 89.0836169,22.1702423 89.2082366,21.4138479 C89.3328563,20.6574535 89.3943775,20.0627493 89.3943775,19.627369 C89.3943775,19.2337915 89.3580958,18.8457352 89.2855324,18.4624113 C89.212969,18.0790873 89.0883493,17.7430873 88.9132507,17.4528338 C88.7365746,17.163369 88.5038986,16.9243831 88.2136451,16.7374535 C87.9233915,16.5513127 87.5511099,16.4582423 87.0960113,16.4582423 C86.3285746,16.4582423 85.6920676,16.7224676 85.1841239,17.2509183 C84.676969,17.779369 84.273138,18.4103549 83.972631,19.1462423 C83.6721239,19.8813408 83.4599549,20.626693 83.3353352,21.3830873 C83.2115042,22.1394817 83.1499831,22.7349746 83.1499831,23.1695662 C83.1499831,23.5631437 83.1807437,23.9464676 83.2422648,24.319538 C83.3037859,24.6926085 83.4236732,25.0293972 83.5995606,25.3291155 C83.7754479,25.6304113 84.0089127,25.8678197 84.2983775,26.0444958 C84.588631,26.2203831 84.9617014,26.3079324 85.4175887,26.3079324 M78.0216451,23.2626366 C78.0216451,22.0401014 78.2188282,20.803369 78.6124056,19.5500732 C79.0059831,18.2967775 79.5959549,17.163369 80.3831099,16.1474817 C81.1702648,15.1331718 82.1546028,14.3042141 83.3353352,13.6621859 C84.5152789,13.0201577 85.9034479,12.6991437 87.4998423,12.6991437 C88.4723493,12.6991437 89.3841239,12.8379606 90.2335887,13.1179606 C91.0830535,13.3971718 91.8276169,13.8230873 92.4704338,14.3917634 C93.112462,14.9620169 93.6156732,15.6766085 93.9784901,16.535538 C94.3405183,17.3960451 94.521138,18.395369 94.521138,19.5350873 C94.521138,20.7363268 94.3294761,21.9580732 93.9461521,23.2011155 C93.5628282,24.443369 92.988631,25.5775662 92.2227718,26.6029183 C91.4553352,27.6282704 90.4820394,28.4674817 89.301307,29.1197634 C88.1213634,29.7728338 86.7426592,30.0985803 85.169138,30.0985803 C84.1942648,30.0985803 83.2785465,29.963707 82.4188282,29.6939606 C81.5583211,29.4257915 80.8035042,29.0109183 80.1504338,28.451707 C79.4981521,27.8924958 78.9799549,27.1834254 78.5974197,26.323707 C78.213307,25.4639887 78.0216451,24.443369 78.0216451,23.2626366" id="Fill-14" fill="#ED1C24"></path>
                <path d="M76.1107042,14.7337577 C75.9561127,14.0814761 75.7739155,13.548293 75.5680563,13.1334197 L75.3259155,13.1334197 L71.0651831,13.1334197 L70.7362817,13.1334197 C70.6077183,13.1334197 70.4854648,13.1823211 70.3931831,13.2698704 L69.1706479,14.4245746 C69.0050141,14.5807437 68.9663662,14.8291944 69.0767887,15.0287437 L69.7416901,16.2315606 C69.8292394,16.3908845 69.9964507,16.4894761 70.1786479,16.4894761 L70.4121127,16.4894761 L71.3104789,16.4894761 C71.3522817,16.7797296 71.3830423,17.0534197 71.4035493,17.3129127 C71.4240563,17.5724056 71.4350986,17.8460958 71.4350986,18.1355606 C71.4350986,19.0063211 71.3049577,19.9070535 71.0470423,20.8393352 C70.7875493,21.7716169 70.4349859,22.6210817 69.9893521,23.3869408 C69.5452958,24.1535887 69.0160563,24.7853634 68.4047887,25.2830535 C67.7943099,25.7791662 67.136507,26.0284056 66.432169,26.0284056 C66.1419155,26.0284056 65.8776901,25.9455887 65.6402817,25.7791662 C65.4020845,25.6143211 65.2821972,25.3240676 65.2821972,24.9099831 C65.2821972,24.6410254 65.3082254,24.3349972 65.3610704,23.9926873 C65.412338,23.6511662 65.4896338,23.2733634 65.5937465,22.8584901 L67.8305915,13.1334197 L66.7697465,13.1334197 L60.7138592,13.1334197 L60.5671549,13.1334197 C60.4393803,13.1334197 60.3171268,13.1823211 60.2240563,13.2698704 L59.0023099,14.4245746 C58.8366761,14.5807437 58.7980282,14.8291944 58.9084507,15.0287437 L59.5733521,16.2315606 C59.6609014,16.3908845 59.8281127,16.4894761 60.0095211,16.4894761 L60.0615775,16.4894761 L61.6122254,16.4894761 L61.9576901,16.4894761 L60.3731268,23.3561803 C60.2492958,23.8948845 60.1451831,24.4233352 60.0631549,24.9407437 C59.9795493,25.4589408 59.9385352,25.9660958 59.9385352,26.4637859 C59.9385352,27.6437296 60.3833803,28.5452507 61.2746479,29.1659831 C62.1651268,29.788293 63.3979155,30.0982648 64.9722254,30.0982648 C66.6498592,30.0982648 68.1878873,29.7259831 69.5863099,28.9798423 C70.9839437,28.2344901 72.1851831,27.2454197 73.1908169,26.012631 C74.1940845,24.780631 74.9717746,23.3561803 75.5207324,21.7408563 C76.0696901,20.1247437 76.3449577,18.4471099 76.3449577,16.7063775 C76.3449577,16.0438423 76.2660845,15.3860394 76.1107042,14.7337577" id="Fill-16" fill="#ED1C24"></path>
                <path d="M49.8060056,21.8023775 C49.578062,22.6408 49.2720338,23.3766873 48.8887099,24.008462 C48.5061746,24.6410254 48.0652732,25.1426592 47.5691606,25.5157296 C47.0714704,25.8888 46.5532732,26.0749408 46.0153577,26.0749408 C45.7866254,26.0749408 45.5586817,26.0394479 45.3315268,25.9660958 C45.1035831,25.8935324 44.8961465,25.7539268 44.7100056,25.5464901 C44.5238648,25.340631 44.3676958,25.0551099 44.2446535,24.692293 C44.1200338,24.3302648 44.0577239,23.8586028 44.0577239,23.2788845 C44.0577239,22.4917296 44.1610479,21.709307 44.3676958,20.9324056 C44.5751324,20.156293 44.8653859,19.4566873 45.2384563,18.8351662 C45.6115268,18.2144338 46.0516394,17.7072789 46.5595831,17.3129127 C47.0659493,16.9201239 47.6101746,16.7221521 48.1906817,16.7221521 C48.8737239,16.7221521 49.3706254,16.9453634 49.6813859,17.3909972 C49.9921465,17.8358423 50.1483155,18.4313352 50.1483155,19.1774761 C50.1483155,20.0892507 50.0339493,20.9639549 49.8060056,21.8023775 M57.1191324,27.9395042 L56.4550197,26.7366873 C56.3666817,26.5781521 56.1994704,26.4795606 56.018062,26.4795606 L55.9660056,26.4795606 L54.1077521,26.4795606 L53.6589634,26.4795606 L56.2996394,13.3045746 L52.9443718,13.3045746 L51.9190197,14.889138 C51.6287662,14.3717296 51.1153014,13.9055887 50.3809915,13.4907155 C49.6451042,13.076631 48.738062,12.8699831 47.6614423,12.8699831 C46.294569,12.8699831 45.0673014,13.1957296 43.9796394,13.8488 C42.8927662,14.5010817 41.9604845,15.3552789 41.1835831,16.4121803 C40.4066817,17.468293 39.8111887,18.6537577 39.3971042,19.9693634 C38.982231,21.284969 38.7755831,22.6060958 38.7755831,23.9311662 C38.7755831,24.6568 38.8528789,25.3911099 39.0082592,26.1372507 C39.1636394,26.8826028 39.4278648,27.5617014 39.8001465,28.172969 C40.1740056,28.7842366 40.6811606,29.2858704 41.3231887,29.6786592 C41.9652169,30.0722366 42.7728789,30.2694197 43.7469634,30.2694197 C44.1610479,30.2694197 44.5956394,30.233138 45.0523155,30.1613634 C45.5074141,30.0880113 45.9577803,29.9436732 46.4042028,29.7259831 C46.8490479,29.508293 47.293893,29.2085746 47.7395268,28.824462 C48.1851606,28.4419268 48.5937239,27.9505465 48.9675831,27.3487437 L48.6252732,29.8348282 L49.2483718,29.8348282 L54.0304563,29.8348282 L55.3137239,29.8348282 L55.4604282,29.8348282 C55.5882028,29.8348282 55.7104563,29.7859268 55.8035268,29.6991662 L57.0252732,28.5436732 C57.190907,28.388293 57.2295549,28.1390535 57.1191324,27.9395042" id="Fill-18" fill="#ED1C24"></path>
            </g>
        </g>
    </g>
</svg>