<svg width="125" height="37" viewBox="0 0 125 37" xmlns="http://www.w3.org/2000/svg"><title>Transdev</title><defs><linearGradient x1="50.444%" y1="47.416%" x2="89.717%" y2="63.483%" id="a"><stop stop-color="#E30613" offset="0%"/><stop stop-color="#E30613" stop-opacity=".987" offset="15.99%"/><stop stop-color="#E30613" stop-opacity=".944" offset="28.24%"/><stop stop-color="#E30613" stop-opacity=".872" offset="39.26%"/><stop stop-color="#E30613" stop-opacity=".77" offset="49.55%"/><stop stop-color="#E30613" stop-opacity=".638" offset="59.33%"/><stop stop-color="#E30613" stop-opacity=".476" offset="68.74%"/><stop stop-color="#E30613" stop-opacity=".284" offset="77.85%"/><stop stop-color="#E30613" stop-opacity=".068" offset="86.5%"/><stop stop-color="#E30613" stop-opacity="0" offset="88.96%"/></linearGradient></defs><g fill="none" fill-rule="evenodd"><path d="M122.61 12.013a20.494 20.494 0 0 1-3.584 8.45h-.08l-3.802-8.45h-2.526l2.091 4.561c-.815 2.038-2.905 4.883-6.355 4.883-2.036 0-3.23-.966-3.502-2.603.819.185 1.658.266 2.498.242 2.254 0 4.834-1.046 4.834-3.97 0-2.227-1.71-3.462-3.993-3.462-3.475 0-5.864 2.173-5.864 5.983a6.863 6.863 0 0 0 .731 3.302 2.73 2.73 0 0 1-1.6.535c-.788 0-1.276-.215-1.276-1.395V8.392h-2.363v3.757a6.04 6.04 0 0 0-2.416-.485c-4.073 0-6.002 2.63-6.002 6.144 0 3.38 1.739 5.768 5.186 5.768 1.688 0 2.934-.562 3.65-1.4.542 1.025 1.58 1.4 2.922 1.4a6.582 6.582 0 0 0 3.412-.967c.979.646 2.25.967 3.756.967 4.371 0 6.518-2.978 7.468-4.722l2.064 4.428h1.628c2.635-2.899 4.752-7.513 5.513-11.27h-2.39zM94.723 21.43c-1.9 0-2.85-1.636-2.85-3.622 0-2.522 1.03-3.997 3.475-3.997a5.017 5.017 0 0 1 2.471.56v5.772c0 .028.003.054.003.082-.615.751-1.728 1.205-3.099 1.205zm13.333-7.86c1.249 0 1.847.563 1.847 1.582 0 1.69-1.303 2.039-2.905 2.039a6.519 6.519 0 0 1-2.227-.295c.054-2.12 1.493-3.327 3.285-3.327z" fill="#E30613" fill-rule="nonzero"/><path d="M54.129 11.886a6.71 6.71 0 0 0-4.625 1.335l.004.642v6.54a4.585 4.585 0 0 1-2.844 1.102c-1.707 0-2.789-1.027-3.099-2.553a5.528 5.528 0 0 1-.114-1.14h-.004V14.36h3.775v-2.083l-3.775.001v-.45l-.003-3.037h-2.286v3.487H38.43v2.086h2.734v3.413h-.001c.002.492.052.983.15 1.466a5.252 5.252 0 0 0 5.307 4.332h.017a5.452 5.452 0 0 0 3.07-.93l.003.63h2.122v-8.648a4.544 4.544 0 0 1 2.244-.557 4.426 4.426 0 0 1 1.574.301l.984-2.009a8.886 8.886 0 0 0-2.505-.476z" fill="#E30613"/><path d="M88.187 20.026c-.01-2.275-1.674-2.835-3.183-3.18-1.275-.29-2.982-.348-2.982-1.443 0-1.113 1.194-1.48 1.902-1.48 1.238 0 2.09.333 3.101.85l.89-1.768a8.99 8.99 0 0 0-3.93-1.017c-1.913 0-4.13 1.05-4.13 3.394 0 2.303 1.744 2.763 3.713 3.145 1.193.232 2.154.514 2.24 1.518h-.003s.233 1.518-2.543 1.518h-2.97c-1.729 0-1.796-.75-1.796-1.79 0-.55.007-3.553.007-3.553 0-3.244-2.48-4.112-4.594-4.112-1.94 0-3.714.58-4.677 1.222v7.923c0 .234-.769.37-1.165.372-.4 0-1.228-.271-1.228-.76V13.33l-.44-.262a9.719 9.719 0 0 0-4.368-.964c-2.062 0-3.696.736-4.73 2.126-.978 1.32-1.3 3.105-.909 5.03.484 2.545 2.758 4.371 5.374 4.315h.017a4.837 4.837 0 0 0 3.304-1.194c.642.755 1.767 1.194 3.065 1.194a5.554 5.554 0 0 0 3.417-1.204v-7.749a5.675 5.675 0 0 1 2.47-.474c1.458 0 2.276.453 2.276 2.474h-.003v3.44c0 1.396.224 3.437 3.613 3.437l3.609.001h.204c2.587 0 3.669-1.174 4.122-2.157.215-.4.327-.844.328-1.296V20.026h-.001zm-23.609.376a4.315 4.315 0 0 1-2.84 1.112c-1.856 0-2.786-1.315-3.038-2.547-.293-1.435-.052-2.712.678-3.595.652-.79 1.633-1.208 2.839-1.208h.003c.8.008 1.594.132 2.358.366 0 .77-.002 5.262 0 5.872z" fill="#E30613" fill-rule="nonzero"/><path d="M27.86 4.503a2.39 2.39 0 0 0 1.253-2.359A2.405 2.405 0 0 0 27.386.098a2.445 2.445 0 0 0-2.575.793 2.374 2.374 0 0 0-.244 2.653 2.42 2.42 0 0 0 1.445 1.153c.618.18 1.282.11 1.847-.194zm8.936 1.267c-.073-.391-.468-.662-1.38-.55-5.73.704-8.963 1.213-20.623 2.466-.954.103-1.754.236-1.842.87-.145 1.034 2.576 1.1 4.468 1.539.969.193 1.91.5 2.803.916a.612.612 0 0 1 .269 1c-2.21 3.172-5.193 7.661-6.035 9.28-.83 1.6.572 2.41 1.955 1.2 3.279-2.872 4.295-4.164 7.231-6.428.402-.31.72-.243.827.232.058.26.12.593.175 1 .062.588.062 1.18-.002 1.767l-.008.058c-.01.14-.027.314-.05.531-.37 3.273-2.418 6.687-4.632 8.72a14.042 14.042 0 0 0 5.603-3.575l.025-.006c.34-.357.655-.736.944-1.134a13.822 13.822 0 0 0 2.57-5.995 15.33 15.33 0 0 0 .227-1.533c.447-4.665 2.424-6.346 6.503-8.837.627-.382 1.08-.947.972-1.521z" fill="#E30613"/><path d="M23.033 23.112a9.446 9.446 0 0 1-4.16 3.107 11.8 11.8 0 0 1-6.17.503c-.403-.07-.798-.161-1.185-.267-6.487-1.78-10.4-8.221-8.89-14.633 1.51-6.413 7.91-10.538 14.543-9.374.405.071.818-.075 1.084-.382.266-.307.343-.73.203-1.108a1.146 1.146 0 0 0-.88-.726C9.652-1.158 2.025 3.836.335 11.523c-1.69 7.688 3.168 15.299 10.98 17.205.323.078.648.15.98.209 2.565.451 5.205.247 7.665-.592 2.23-2.03 4.294-5.44 4.665-8.708.024-.217.042-.392.051-.53a8.097 8.097 0 0 1-1.643 4.005z" fill="url(#a)"/><path d="M40.858 30.902h.576v-.932h1.033v.932h1.093v.847h-1.093v1.516c0 .432.207.568.517.568.25-.003.496-.076.705-.212v.931c-.307.15-.647.223-.99.212-.662 0-1.265-.313-1.265-1.228v-1.787h-.576v-.847zm4.045-2.131h1.081v2.142c.318-.111.654-.168.992-.167.874 0 1.568.388 1.568 1.551v2.468h-1.09v-2.397a.601.601 0 0 0-.188-.507.631.631 0 0 0-.525-.163 2.306 2.306 0 0 0-.757.114v2.953h-1.081v-5.994z" fill="#E30613"/><path d="M50.39 33.049v.017c.079.54.628.814 1.16.814.464.01.922-.11 1.32-.343v.874a2.6 2.6 0 0 1-1.427.352c-1.284 0-2.09-.763-2.09-1.954 0-1.26.824-2.04 1.93-2.04 1.232 0 1.71.789 1.71 1.8v.48H50.39zm1.61-.617c-.008-.472-.239-.815-.744-.815-.46 0-.761.318-.859.815H52z" fill="#E30613" fill-rule="nonzero"/><path d="M60.431 32.322c0-.412-.183-.622-.594-.622a1.762 1.762 0 0 0-.734.149c.052.127.079.264.078.403v2.513h-1.057v-2.443c0-.412-.192-.622-.594-.622a2.193 2.193 0 0 0-.656.096v2.97h-1.049v-3.653a5.051 5.051 0 0 1 1.757-.341c.382-.02.76.087 1.075.306.411-.2.862-.305 1.32-.306.926 0 1.512.359 1.512 1.506v2.487H60.43v-2.443z" fill="#E30613"/><path d="M64.726 30.77c1.116 0 2.022.895 2.022 1.998s-.906 1.997-2.023 1.997c-1.116 0-2.021-.894-2.021-1.997a1.917 1.917 0 0 1 .57-1.434 1.97 1.97 0 0 1 1.452-.564zm0 .892c-.564 0-.972.42-.972 1.106 0 .686.408 1.106.972 1.106.564 0 .972-.42.972-1.106 0-.686-.408-1.106-.972-1.106zm3.235-2.891h.99v2.137a1.72 1.72 0 0 1 .825-.19c.493-.028.973.166 1.32.534.349.368.531.875.503 1.394 0 1.26-.75 2.12-2.178 2.12a3.873 3.873 0 0 1-1.46-.279v-5.716zm.99 5.013c.165.057.338.087.512.086.308.03.612-.088.829-.32.217-.232.324-.554.292-.878a1.01 1.01 0 0 0-.272-.73.907.907 0 0 0-.693-.287 1.149 1.149 0 0 0-.668.2v1.929zm3.865-4.388a.616.616 0 0 1 .368-.575.6.6 0 0 1 .664.128.623.623 0 0 1 .136.672.607.607 0 0 1-.562.382.61.61 0 0 1-.606-.607zm1.112 4.97h-1.011V30.55h1.01v3.815z" fill="#E30613" fill-rule="nonzero"/><path fill="#E30613" d="M76.456 34.765h-1.213v-5.994h1.213z"/><path d="M77.67 29.396a.616.616 0 0 1 .369-.575.6.6 0 0 1 .664.128.623.623 0 0 1 .135.672.607.607 0 0 1-.561.382.61.61 0 0 1-.607-.607zm1.112 4.97h-1.011V30.55h1.011v3.815z" fill="#E30613" fill-rule="nonzero"/><path d="M79.288 30.902h.577v-.932h1.033v.932h1.093v.847h-1.093v1.516c0 .432.206.568.516.568.251-.003.496-.076.706-.212v.931c-.307.15-.647.223-.99.212-.663 0-1.265-.313-1.265-1.228v-1.787h-.577v-.847zm5.493 2.728l1.032-2.86h1.161l-2.248 5.594H83.63l.58-1.484-1.686-4.11h1.207zm7.821-1.599a1.537 1.537 0 0 0-1.007-.351c-.303-.022-.6.084-.815.291a.997.997 0 0 0-.307.789c-.016.3.104.594.327.804.223.21.529.316.84.292.362 0 .714-.122.998-.342v.968a2.237 2.237 0 0 1-1.15.283c-1.272 0-2.085-.789-2.085-1.988a1.887 1.887 0 0 1 .58-1.449 2.013 2.013 0 0 1 1.497-.556c.394-.014.785.084 1.122.282v.977z" fill="#E30613"/><path d="M95.47 30.77c1.117 0 2.022.895 2.022 1.998s-.905 1.997-2.022 1.997c-1.117 0-2.022-.894-2.022-1.997a1.917 1.917 0 0 1 .57-1.434 1.97 1.97 0 0 1 1.452-.564zm0 .892c-.564 0-.972.42-.972 1.106 0 .686.408 1.106.972 1.106.564 0 .972-.42.972-1.106 0-.686-.408-1.106-.972-1.106z" fill="#E30613" fill-rule="nonzero"/><path d="M103.311 32.322c0-.412-.183-.622-.594-.622a1.762 1.762 0 0 0-.734.149c.052.127.08.264.079.403v2.513h-1.058v-2.443c0-.412-.192-.622-.594-.622a2.193 2.193 0 0 0-.656.096v2.97h-1.048v-3.653a5.051 5.051 0 0 1 1.756-.341c.383-.02.76.087 1.075.306.411-.2.863-.305 1.32-.306.926 0 1.512.359 1.512 1.506v2.487h-1.058v-2.443z" fill="#E30613"/><path d="M105.987 31.095a4.214 4.214 0 0 1 1.614-.326c1.208 0 2.027.73 2.027 1.97 0 1.364-.77 2.13-2.052 2.13a1.913 1.913 0 0 1-.588-.08v1.575h-1v-5.27zm1.001 2.77c.166.057.34.084.513.08.637 0 1.117-.36 1.117-1.17a1.035 1.035 0 0 0-.287-.782.908.908 0 0 0-.747-.274 1.635 1.635 0 0 0-.596.097v2.05zm5.639-1.686c0-.37-.317-.524-.704-.524-.401 0-.794.11-1.134.318v-.894c.405-.212.86-.318 1.319-.31.897 0 1.565.344 1.565 1.367v2.475c-.486.1-.98.152-1.477.154-.994 0-1.76-.292-1.76-1.177 0-.799.66-1.177 1.76-1.177h.43v-.232zm0 .893h-.352c-.493 0-.783.138-.783.464 0 .327.273.473.695.473a2.06 2.06 0 0 0 .44-.043v-.894z" fill="#E30613" fill-rule="nonzero"/><path d="M114.887 31.111a5.977 5.977 0 0 1 1.92-.342c1.045 0 1.72.377 1.72 1.542v2.454h-1.09v-2.383a.596.596 0 0 0-.187-.504.634.634 0 0 0-.525-.162 2.62 2.62 0 0 0-.757.113v2.936h-1.081v-3.654zm6.303 2.519l1.031-2.86h1.16l-2.247 5.594h-1.096l.58-1.484-1.686-4.11h1.207z" fill="#E30613"/></g></svg>