<?xml version="1.0" encoding="UTF-8"?>
<svg width="230px" height="58px" viewBox="0 0 230 58" version="1.1" xmlns="http://www.w3.org/2000/svg" xmlns:xlink="http://www.w3.org/1999/xlink">
    <!-- Generator: sketchtool 52.2 (67145) - http://www.bohemiancoding.com/sketch -->
    <title>CD80B346-6AA1-4ABF-8401-2B29FF32B8F2</title>
    <desc>Created with sketchtool.</desc>
    <g id="Style" stroke="none" stroke-width="1" fill="none" fill-rule="evenodd">
        <g id="Icons" transform="translate(-121.000000, -1029.000000)" fill-rule="nonzero">
            <g id="logo_connexxion" transform="translate(121.000000, 1029.000000)">
                <path d="M203.129143,32.5941871 C204.077276,33.7315562 211.892536,43.0955988 213.325526,44.406239 C214.818943,45.7731552 216.743983,46.4973395 218.892028,46.4973395 C222.805414,46.4973395 227.003671,44.0434065 228.656788,40.7882798 C229.407812,39.3088114 229.958852,37.0355541 228.315805,34.6023544 C227.754695,33.7922751 226.553343,32.2506069 225.282932,30.6171197 C223.277322,28.0447108 221.204091,25.3834448 220.74657,24.4726609 C219.843039,22.6644218 220.510616,21.7980664 221.435729,20.5984974 C221.547951,20.4518835 221.665928,20.2993457 221.785344,20.1394031 C222.119133,19.6906755 222.733477,18.8657868 223.465798,17.8824363 C225.331849,15.3737082 227.888498,11.9364248 228.676931,10.9027221 C229.994821,9.17741614 230.223581,7.17665358 229.322927,5.26919083 C227.914396,2.28803981 224.090212,0.124372818 220.228623,0.124372818 C217.929508,0.124372818 215.741178,0.873733182 213.899585,2.2910017 C212.650754,3.24917592 204.577959,11.6728158 202.12346,14.356296 C202.29611,14.5473385 202.46732,14.7413428 202.63997,14.9353472 C204.139142,16.6280723 205.690108,18.3770734 207.723054,18.3770734 L207.793553,18.3770734 C210.039433,18.3341259 214.213231,13.7787257 217.566945,10.1192999 C218.227328,9.39955853 218.850305,8.71980278 219.421487,8.11409451 C220.349477,7.13074415 221.336455,6.92489219 221.999717,6.92489219 C223.268689,6.92489219 224.416808,7.66240496 224.923246,8.80125499 C225.458459,10.0037858 225.160639,11.4106878 224.110356,12.6635709 C222.123449,15.0316089 221.78966,15.464046 220.379691,17.2870948 L219.513566,18.4081734 C219.40566,18.5473826 219.22294,18.7561965 218.991302,19.0198054 C218.165463,19.9557654 216.630322,21.6988428 216.510907,22.7177359 C216.428898,23.4093393 216.708014,24.6592605 218.50069,26.6866802 C218.556801,26.750361 218.594208,26.7947895 218.610034,26.8155228 C219.385518,27.8299731 221.822751,30.9325619 222.99389,32.422397 C223.376596,32.9081484 223.641325,33.2458048 223.703191,33.3257761 C224.634058,34.5238641 224.855625,35.8789328 224.31178,37.0459208 C223.828362,38.0796235 222.80973,38.7490126 221.713406,38.7490126 C220.858792,38.7490126 220.037269,38.3565609 219.339478,37.6160863 C218.598525,36.8297022 217.699309,35.7056617 216.74686,34.5164593 C214.404584,31.5886225 211.489688,27.9454871 209.732981,27.9454871 L209.692695,27.9454871 C206.983539,28.035825 203.711835,31.8833314 203.129143,32.5941871" id="Fill-1" fill="#006D73"></path>
                <path d="M189.992223,10.9570826 C185.96903,10.9570826 181.656037,13.4110156 179.957159,16.6661423 C179.185344,18.1456107 178.62053,20.417387 180.30758,22.8505867 C180.882744,23.662147 182.117351,25.2023343 183.424409,26.8343405 C185.484059,29.4097113 187.617637,32.0709773 188.084866,32.9817611 C189.014887,34.7900003 188.32883,35.6563557 187.378109,36.8559246 C187.26278,37.0025386 187.141537,37.1550764 187.018816,37.3150189 C186.692051,37.7444942 186.097666,38.5190307 185.386473,39.447586 C183.545651,41.8585715 180.760023,45.5002259 179.93498,46.550219 C178.582087,48.2770059 178.346994,50.2777685 179.27258,52.1852313 C180.720101,55.1663823 184.651623,57.3300493 188.617151,57.3300493 L188.61863,57.3300493 C190.979909,57.3300493 193.228816,56.5806889 195.122866,55.1634204 C196.404787,54.2052462 204.701051,45.7816063 207.223494,43.0981261 C207.047544,42.9070837 206.870116,42.7130793 206.692687,42.5190749 C205.152016,40.8263499 203.558116,39.0758677 201.470373,39.0758677 L201.396444,39.0773486 C199.088394,39.1202962 194.799059,43.6756963 191.352509,47.3351222 C190.675323,48.0548635 190.035101,48.7346193 189.44663,49.3403275 C188.492951,50.3221969 187.48013,50.528049 186.79703,50.528049 C185.494409,50.528049 184.314509,49.7920171 183.79553,48.6516861 C183.245501,47.4506362 183.550087,46.0422534 184.629444,44.7893703 C186.666916,42.4272561 187.009944,41.9962998 188.45303,40.177694 L189.35348,39.0447677 C189.464373,38.9070395 189.65363,38.6982256 189.89168,38.4346166 C190.737423,37.4986566 192.316537,35.7540983 192.439259,34.7366861 C192.523537,34.0450828 192.238173,32.7936806 190.394394,30.7662609 C190.33673,30.7040611 190.298287,30.6596326 190.280544,30.6388993 C189.493944,29.6362966 187.106051,26.6788408 185.82413,25.0897821 C185.405694,24.5729308 185.112937,24.2115791 185.04788,24.128646 C184.091244,22.930558 183.862066,21.5754894 184.422444,20.4085012 C184.917766,19.3733176 185.966073,18.7054095 187.091266,18.7054095 C187.971016,18.7054095 188.813801,19.0963802 189.530909,19.8383358 C190.292373,20.6247199 191.21648,21.7472794 192.195294,22.9379628 C194.603887,25.8657996 197.600951,29.5089349 199.404809,29.5089349 L199.447687,29.5089349 C202.22888,29.4185971 205.59263,25.5710906 206.191451,24.860235 C205.215594,23.7213849 197.185473,14.3588232 195.712816,13.048183 C194.17658,11.6797859 192.198251,10.9570826 189.992223,10.9570826" id="Fill-4" fill="#CCDB29"></path>
                <path d="M9.27385325,27.5906095 C10.6846002,27.5906095 11.7290957,27.8486471 12.6665793,28.4284902 C13.0268021,28.6553853 13.3960682,28.7710573 13.763827,28.7710573 C14.7450196,28.7710573 15.6071429,27.9539383 15.6071429,27.0226301 C15.6071429,24.8322765 11.2573395,24.0952381 9.27385325,24.0952381 C3.46507208,24.0952381 0,27.4986651 0,33.2007028 C0,38.9442637 3.46507208,42.3743842 9.27385325,42.3743842 C11.4819135,42.3743842 15.6071429,41.5053611 15.6071429,39.4114008 C15.6071429,38.4311545 14.8444954,37.6644566 13.8738532,37.6644566 C13.4141546,37.6644566 13.0418742,37.7697478 12.6680865,38.0055408 C11.7034731,38.6016966 10.624312,38.8790128 9.27385325,38.8790128 C5.48774574,38.8790128 3.72431192,37.0757157 3.72431192,33.2007028 C3.72431192,29.373145 5.48774574,27.5906095 9.27385325,27.5906095" id="Fill-7" fill="#006D73"></path>
                <path d="M27.0354128,38.8790128 C23.8581516,38.8790128 21.8059187,36.6367551 21.8059187,33.1651114 C21.8059187,29.8313842 23.907985,27.5906095 27.0354128,27.5906095 C30.1507598,27.5906095 32.4113872,29.9351925 32.4113872,33.1651114 C32.4113872,36.5284979 30.2005933,38.8790128 27.0354128,38.8790128 M27.0354128,24.0952381 C21.6730294,24.0952381 18.0714286,27.7403899 18.0714286,33.1651114 C18.0714286,38.5023373 21.8421612,42.3743842 27.0354128,42.3743842 C32.2271545,42.3743842 36.1428571,38.4148418 36.1428571,33.1651114 C36.1428571,27.8249195 32.3993064,24.0952381 27.0354128,24.0952381" id="Fill-9" fill="#006D73"></path>
                <path d="M46.2050818,24.0952381 L38.6071429,24.0952381 L38.6071429,40.5573537 C38.6071429,41.7636685 39.2490719,42.3743842 40.5131078,42.3743842 C41.7070044,42.3743842 42.3397848,41.74704 42.3397848,40.5573537 L42.3397848,27.7292993 L46.5024124,27.7292993 C48.6279446,27.7292993 49.66174,28.6740947 49.66174,30.6181058 L49.66174,40.5573537 C49.66174,41.74704 50.2929956,42.3743842 51.4899416,42.3743842 C52.7524529,42.3743842 53.3928571,41.7636685 53.3928571,40.5573537 L53.3928571,30.6181058 C53.3928571,26.6560116 50.5720289,24.0952381 46.2050818,24.0952381" id="Fill-11" fill="#006D73"></path>
                <path d="M64.2765104,24.0952381 L56.6785714,24.0952381 L56.6785714,40.5573537 C56.6785714,41.7636685 57.3189757,42.3743842 58.5830117,42.3743842 C59.778433,42.3743842 60.4112133,41.74704 60.4112133,40.5573537 L60.4112133,27.7292993 L64.5723162,27.7292993 C66.6993732,27.7292993 67.7316438,28.6740947 67.7316438,30.6181058 L67.7316438,40.5573537 C67.7316438,41.74704 68.3644242,42.3743842 69.5613702,42.3743842 C70.8223567,42.3743842 71.4642857,41.7636685 71.4642857,40.5573537 L71.4642857,30.6181058 C71.4642857,26.6560116 68.6419327,24.0952381 64.2765104,24.0952381" id="Fill-13" fill="#006D73"></path>
                <path d="M77.7523666,31.8480917 C78.1861015,28.9112472 79.8562822,27.4242561 82.7192339,27.4242561 C85.4586916,27.4242561 87.1213427,28.9513558 87.5400174,31.8480917 L77.7523666,31.8480917 Z M82.6830894,24.0952381 C77.1198365,24.0952381 73.9285714,27.4450531 73.9285714,33.2860611 C73.9285714,35.9168915 74.7674269,38.436309 76.3517642,39.9708362 C77.9752582,41.5439866 80.3562823,42.3743842 83.2342942,42.3743842 L88.5851982,42.3743842 C89.7915236,42.3743842 90.4285718,41.7578994 90.4285718,40.590292 C90.4285718,39.4672498 89.7915236,38.8730476 88.5851982,38.8730476 L83.2342942,38.8730476 C80.2704389,38.8730476 78.3156196,37.2716726 77.7011618,34.9320013 L91.1785714,34.9320013 L91.1785714,33.3202277 C91.1785714,27.3722634 88.1620048,24.0952381 82.6830894,24.0952381 Z" id="Fill-15" fill="#006D73"></path>
                <path d="M102.699021,32.7839869 L107.357032,26.8861965 C107.599873,26.5436294 107.725848,26.1921643 107.725848,25.8436653 C107.725848,24.9123571 106.804567,24.0952381 105.755793,24.0952381 C105.135029,24.0952381 104.63265,24.3681054 104.265351,24.9034593 L100.606028,29.9945115 L96.9861667,24.9064252 C96.615833,24.3681054 96.1149711,24.0952381 95.4942068,24.0952381 C94.4469511,24.0952381 93.5256697,24.9123571 93.5256697,25.8436653 C93.5256697,26.1921643 93.6486088,26.5436294 93.8975214,26.8936114 L98.5494611,32.7839869 L93.1887271,39.5834258 C92.9489209,39.9215441 92.8214286,40.2700432 92.8214286,40.5918487 C92.8214286,41.5246397 93.741192,42.3743842 94.7520215,42.3743842 C95.3621614,42.3743842 95.8630225,42.1148636 96.2424634,41.6017544 L100.606028,35.5690133 L105.007537,41.6032374 C105.386978,42.1148636 105.886321,42.3743842 106.496461,42.3743842 C107.50729,42.3743842 108.428571,41.5246397 108.428571,40.5918487 C108.428571,40.2700432 108.301079,39.9215441 108.055202,39.576011 L102.699021,32.7839869 Z" id="Fill-17" fill="#006D73"></path>
                <path d="M119.128553,32.7839869 L123.785499,26.8861965 C124.029882,26.5436294 124.154351,26.1921643 124.154351,25.8436653 C124.154351,24.9123571 123.234498,24.0952381 122.185622,24.0952381 C121.56328,24.0952381 121.060852,24.3681054 120.695036,24.9034593 L117.035356,29.9945115 L113.415143,24.9064252 C113.044773,24.3681054 112.543863,24.0952381 111.923038,24.0952381 C110.874163,24.0952381 109.95431,24.9123571 109.95431,25.8436653 C109.95431,26.1921643 110.077261,26.5436294 110.327716,26.8936114 L114.980107,32.7839869 L109.615816,39.5834258 C109.377505,39.9215441 109.25,40.2700432 109.25,40.5918487 C109.25,41.5246397 110.169853,42.3743842 111.182298,42.3743842 C111.79098,42.3743842 112.29189,42.1148636 112.671367,41.6017544 L117.035356,35.5690133 L121.437293,41.6032374 C121.81677,42.1148636 122.316163,42.3743842 122.926363,42.3743842 C123.93729,42.3743842 124.857143,41.5246397 124.857143,40.5918487 C124.857143,40.2700432 124.729638,39.9215441 124.485255,39.576011 L119.128553,32.7839869 Z" id="Fill-19" fill="#006D73"></path>
                <path d="M128.948336,24.0952381 C127.883668,24.0952381 127.321429,24.7002918 127.321429,25.8436653 L127.321429,40.5918487 C127.321429,41.7589497 127.883668,42.3743842 128.948336,42.3743842 C130.04889,42.3743842 130.607143,41.7752625 130.607143,40.5918487 L130.607143,25.8436653 C130.607143,24.7002918 130.03427,24.0952381 128.948336,24.0952381" id="Fill-21" fill="#006D73"></path>
                <path d="M143.67676,38.8790128 C140.499499,38.8790128 138.447265,36.6367551 138.447265,33.1651114 C138.447265,29.8313842 140.549332,27.5906095 143.67676,27.5906095 C146.792106,27.5906095 149.052735,29.9351925 149.052735,33.1651114 C149.052735,36.5284979 146.84194,38.8790128 143.67676,38.8790128 M143.67676,24.0952381 C138.315887,24.0952381 134.714286,27.7403899 134.714286,33.1651114 C134.714286,38.5023373 138.483508,42.3743842 143.67676,42.3743842 C148.868501,42.3743842 152.785714,38.4148418 152.785714,33.1651114 C152.785714,27.8249195 149.040654,24.0952381 143.67676,24.0952381" id="Fill-23" fill="#006D73"></path>
                <path d="M162.847939,24.0952381 L155.25,24.0952381 L155.25,40.5573537 C155.25,41.7636685 155.890405,42.3743842 157.15444,42.3743842 C158.349861,42.3743842 158.982642,41.74704 158.982642,40.5573537 L158.982642,27.7292993 L163.143745,27.7292993 C165.270802,27.7292993 166.303072,28.6740947 166.303072,30.6181058 L166.303072,40.5573537 C166.303072,41.74704 166.935853,42.3743842 168.132799,42.3743842 C169.39531,42.3743842 170.035714,41.7636685 170.035714,40.5573537 L170.035714,30.6181058 C170.035714,26.6560116 167.213361,24.0952381 162.847939,24.0952381" id="Fill-25" fill="#006D73"></path>
            </g>
        </g>
    </g>
</svg>