<?xml version="1.0" encoding="UTF-8"?>
<svg width="206px" height="60px" viewBox="0 0 206 60" version="1.1" xmlns="http://www.w3.org/2000/svg" xmlns:xlink="http://www.w3.org/1999/xlink">
    <!-- Generator: Sketch 52.3 (67297) - http://www.bohemiancoding.com/sketch -->
    <title>hermes_header</title>
    <desc>Created with Sketch.</desc>
    <defs>
        <polygon id="path-1" points="0 0.109821525 39.9249915 0.109821525 39.9249915 23.4083295 0 23.4083295"></polygon>
    </defs>
    <g id="Style" stroke="none" stroke-width="1" fill="none" fill-rule="evenodd">
        <g id="Icons" transform="translate(-120.000000, -1484.000000)">
            <g id="hermes_header" transform="translate(120.000000, 1483.802817)">
                <path d="M84.2209945,15.9337017 L84.2232707,15.9337017 L84.2209945,15.9337017 Z" id="Fill-1" fill="#1D1F20"></path>
                <path d="M84.2209945,47.8056575 L84.2209945,47.801105 L84.2209945,47.8056575 Z" id="Fill-2" fill="#1D1F20"></path>
                <g id="Group-30">
                    <path d="M126.024445,24.9627177 C125.469998,24.8127503 124.569296,24.7056308 123.721189,24.7056308 C119.04236,24.7056308 116.298615,28.4976638 114.194785,32.9731197 C115.174381,30.173014 116.7917,24.8620253 116.7917,24.8620253 L109.827147,24.8620253 L108.884806,27.8528039 L112.463509,27.8528039 L111.299828,31.7969468 C109.809615,36.8958386 107.986296,42.3546523 106.316381,47.6506442 L109.97836,47.6506442 C114.519126,33.8600698 118.509828,27.8956518 123.256594,27.8956518 C123.806657,27.8956518 124.42904,28.0070561 124.819126,28.0863246 L126.024445,24.9627177 Z" id="Fill-3" fill="#1D1F20"></path>
                    <path d="M160.867811,30.439099 C161.5143,27.4633172 161.150513,26.4306844 160.370343,25.4880322 C159.776449,24.7724734 158.831917,24.4232636 157.488534,24.4232636 C153.640279,24.4232636 149.37564,28.4938075 146.818172,32.8385775 C147.10964,31.9837633 147.317832,31.1118099 147.528215,30.1841544 C147.981853,28.118889 148.082662,26.6770595 147.081151,25.4408995 C146.526704,24.7553342 145.656683,24.4232636 144.521491,24.4232636 C139.97196,24.4232636 135.19013,29.322913 132.417896,34.5696299 C133.079726,32.7914449 133.612257,31.3024828 134.090002,29.9484913 C134.67513,28.3095618 135.974683,24.8603114 135.974683,24.8603114 L128.687981,24.8603114 L127.741257,27.85109 L131.31996,27.85109 C129.4813,33.7555211 127.335832,40.3712262 124.863832,47.6510726 L128.514853,47.6510726 L130.638406,42.0680003 C132.884683,36.0114594 139.169874,27.8960802 142.522853,27.8960802 C142.994023,27.8960802 143.469577,28.0224813 143.688726,28.2924227 C144.111683,28.7980271 144.089768,29.7363946 143.649279,31.4653045 C142.934853,34.2825494 139.443811,44.4374853 138.275747,47.6510726 L141.933343,47.6510726 L144.208109,41.7616383 C146.989109,34.4260897 153.031045,27.8960802 155.844917,27.8960802 C156.42347,27.8960802 156.767534,28.0139118 156.980109,28.2624292 C157.341704,28.6823379 157.326364,29.4621685 157.021747,30.854723 C156.55496,32.9564091 155.148023,37.0012443 153.366343,42.1601231 C152.250874,45.3844224 151.466321,47.6510726 151.466321,47.6510726 L155.303619,47.6553574 C156.993257,43.051358 160.0723,34.1839994 160.867811,30.439099" id="Fill-5" fill="#1D1F20"></path>
                    <path d="M205.435911,25.6542817 C203.941315,25.1101143 201.46274,24.4224066 198.613804,24.4224066 C195.808698,24.4224066 193.487911,25.0629817 191.717187,26.3355622 C190.07357,27.51602 188.973443,29.2106517 188.532953,31.248066 C187.719911,34.9865393 191.099187,36.2955405 194.07523,37.4567167 C196.545038,38.4229353 198.510804,39.159918 198.114145,41.2123291 C197.7394,43.1554782 195.878826,44.9915078 192.186166,45.096485 C190.369421,45.1414752 187.605953,44.6680067 185.030953,43.3482935 L183.9374,46.5983014 C185.767294,47.3331417 188.169166,48.0915483 191.592272,48.0915483 C197.200294,48.0915483 200.949932,45.7306329 201.933911,41.0837856 C202.5804,38.0287353 200.654081,36.2312688 198.06374,35.1857817 L195.681591,34.2217055 C193.308209,33.2747684 191.890315,32.5699216 192.300123,30.6867595 C192.64857,29.1056745 194.336017,27.2225123 197.888421,27.2225123 C199.179209,27.2225123 200.592719,27.4603178 201.53506,27.8330939 L200.540123,31.5244346 L203.695868,31.5244346 L205.435911,25.6542817 Z" id="Fill-7" fill="#1D1F20"></path>
                    <path d="M184.205857,29.6836917 C183.153943,34.5190695 177.289517,37.8783394 168.11156,38.8981178 C167.673262,41.0040886 167.791602,42.6065975 168.578347,43.5985248 C169.389198,44.6311575 170.669028,44.9053836 172.518645,44.8775325 C174.611517,44.8453967 177.296091,44.0527118 179.660709,42.7329986 L178.330474,46.587161 C176.849028,47.3541372 174.063645,48.0911199 170.982411,48.0911199 C168.254006,48.0911199 166.673943,47.2405904 165.558474,45.8973109 C164.19756,44.2540966 163.669411,41.7367865 164.524091,37.8054981 C165.343709,34.0498857 167.254687,30.6134897 169.915155,28.1283155 C172.698347,25.5660152 175.45524,24.4219781 178.847666,24.4219781 C180.960262,24.4219781 182.564432,25.0025662 183.478283,26.112325 C184.247496,27.0378382 184.506091,28.3039916 184.205857,29.6836917 M177.828623,27.1878056 C173.64507,27.2306534 170.118964,31.9203485 168.714219,36.2029892 C175.897921,35.3160391 179.757134,33.1565084 180.519772,29.7929537 C180.721389,28.9038612 180.572368,28.3789753 180.206389,27.9376426 C179.748368,27.3806208 178.919985,27.1728089 177.828623,27.1878056" id="Fill-9" fill="#1D1F20"></path>
                    <path d="M104.762396,29.6836917 C103.712672,34.5190695 97.8438638,37.8783394 88.6724809,38.8981178 C88.225417,41.0040886 88.3481404,42.6065975 89.1326936,43.5985248 C89.9413532,44.6311575 91.225566,44.9053836 93.0817574,44.8775325 C95.1658638,44.8453967 97.8526298,44.0527118 100.212864,42.7329986 L98.8892043,46.587161 C97.4033745,47.3541372 94.6179915,48.0911199 91.534566,48.0911199 C88.8127362,48.0911199 87.2304809,47.2405904 86.1172043,45.8973109 C84.7584809,44.2540966 84.2237574,41.7367865 85.0828213,37.8054981 C85.8980553,34.0498857 87.813417,30.6134897 90.4695021,28.1283155 C93.2548851,25.5660152 96.0073957,24.4219781 99.3998213,24.4219781 C101.521183,24.4219781 103.118779,25.0025662 104.03263,26.112325 C104.801843,27.0378382 105.06263,28.3039916 104.762396,29.6836917 M98.3895447,27.1878056 C94.2016085,27.2306534 90.6798851,31.9203485 89.2773319,36.2029892 C96.4522681,35.3160391 100.313672,33.1565084 101.078502,29.7929537 C101.280119,28.9038612 101.124523,28.3789753 100.762928,27.9376426 C100.304906,27.3806208 99.4743319,27.1728089 98.3895447,27.1878056" id="Fill-11" fill="#1D1F20"></path>
                    <path d="M45.4646383,30.0196187 C25.1933617,28.0850392 6.58104255,20.5288242 6.12740426,13.5060647 C11.7288511,19.001299 25.1933617,23.8666702 40.0034468,26.2682912 C43.6478936,26.853164 45.2104255,28.986986 45.4646383,30.0196187" id="Fill-13" fill="#1D1F20"></path>
                    <g id="Group-17" transform="translate(0.000000, 1.138122)">
                        <mask id="mask-2" fill="white">
                            <use xlink:href="#path-1"></use>
                        </mask>
                        <g id="Clip-16"></g>
                        <path d="M39.9249915,23.4083295 C30.026034,21.7351217 18.490034,19.0871258 8.34124681,12.6985142 C0.2678,7.61033431 -1.34075319,3.57835343 0.95373617,0.109821525 C-0.0937957447,5.51293299 9.4348,11.4494999 18.4768851,14.6995079 C23.8175447,16.6233755 29.4913106,18.11448 34.5887149,19.2863682 C38.1827574,20.1176161 39.7321404,22.3607001 39.9249915,23.4083295" id="Fill-15" fill="#1D1F20" mask="url(#mask-2)"></path>
                    </g>
                    <path d="M50.8962447,35.5105683 C38.7795,34.1715735 24.8109468,32.3012657 12.9856702,25.4713215 C7.52009574,22.3091516 3.21820213,18.508549 5.72745745,13.9795333 C5.33956383,17.9729511 10.2989043,21.5657417 15.608883,24.0766246 C23.8072447,27.9500685 34.5017128,30.5530742 45.0208617,31.6821146 C48.6981809,32.0741722 50.6376489,34.4822203 50.8962447,35.5105683" id="Fill-18" fill="#1D1F20"></path>
                    <path d="M56.3504234,40.809988 C49.6378915,40.345089 33.3595085,38.7468649 22.233317,34.2414155 C19.5465511,33.1509382 11.7996362,29.7809563 11.2145085,25.5904385 C19.6276362,32.3818197 35.6759128,35.7175233 50.0323596,37.0822267 C54.0844234,37.4721419 55.9932106,39.8052063 56.3504234,40.809988" id="Fill-20" fill="#1D1F20"></path>
                    <path d="M61.2920128,45.9587976 C53.4486723,45.7745519 35.4368213,44.1056289 23.5392255,39.263824 C17.7536936,36.9050509 7.93362979,32.0503917 10.8483106,26.0859736 C10.7935234,29.4688099 14.4335872,32.1489417 19.1321404,34.5098572 C29.2568213,39.5808979 42.9382894,41.4640601 55.0988638,42.4966928 C58.7783745,42.809482 60.9106936,44.9647279 61.2920128,45.9587976" id="Fill-22" fill="#1D1F20"></path>
                    <path d="M66.7696404,16.7185809 L66.7696404,28.2382202 L76.0418319,28.2382202 L76.0418319,16.7185809 L84.3234702,16.7185809 C79.2238745,9.27805504 70.5433851,4.38483277 60.6948319,4.38483277 C49.8929809,4.38483277 40.498066,10.2785519 35.6811723,18.9466681 C40.0290872,20.232103 41.7121511,23.5678066 41.9313,24.943222 C45.8694064,26.2436536 47.3201723,29.2665681 47.5152149,30.4898737 C51.2911511,31.8288684 52.7156191,34.4940035 52.961066,35.9593993 C55.9655979,36.8956244 57.9467043,39.1879833 58.4726617,41.2618183 L58.4726617,16.7185809 L66.7696404,16.7185809 Z" id="Fill-24" fill="#1D1F20"></path>
                    <path d="M58.4724426,47.5478094 C52.6102085,47.3849876 44.2299532,46.5473125 35.1396553,44.394209 C39.7636979,53.6279166 49.4698043,59.9865346 60.6946128,59.9865346 C70.543166,59.9865346 79.2236553,55.0933124 84.3254426,47.6549289 L76.0416128,47.6549289 L76.0416128,35.4432972 L66.7694213,35.4432972 L66.7694213,47.6549289 L60.9115702,47.6549289 C59.6887191,47.6206507 59.0093574,47.5628061 58.4724426,47.5478094" id="Fill-26" fill="#1D1F20"></path>
                    <path d="M33.7978064,18.5199037 C23.4999979,16.3817969 14.9071681,13.2389085 9.13259362,9.75537988 C4.06367872,6.58892518 1.47991277,3.82095531 1.38567872,0.798040849 C6.4787,6.03618816 15.0627638,10.680893 28.7486149,14.1644217 C32.3207426,15.0706533 33.6531681,17.4701318 33.7978064,18.5199037" id="Fill-28" fill="#1D1F20"></path>
                </g>
            </g>
        </g>
    </g>
</svg>