<svg width="25" height="20" viewBox="0 0 25 20" xmlns="http://www.w3.org/2000/svg"><title>Transdev</title><defs><linearGradient x1="50.436%" y1="47.416%" x2="88.968%" y2="63.483%" id="a"><stop stop-color="#E30613" offset="0%"/><stop stop-color="#E30613" stop-opacity=".987" offset="15.99%"/><stop stop-color="#E30613" stop-opacity=".944" offset="28.24%"/><stop stop-color="#E30613" stop-opacity=".872" offset="39.26%"/><stop stop-color="#E30613" stop-opacity=".77" offset="49.55%"/><stop stop-color="#E30613" stop-opacity=".638" offset="59.33%"/><stop stop-color="#E30613" stop-opacity=".476" offset="68.74%"/><stop stop-color="#E30613" stop-opacity=".284" offset="77.85%"/><stop stop-color="#E30613" stop-opacity=".068" offset="86.5%"/><stop stop-color="#E30613" stop-opacity="0" offset="88.96%"/></linearGradient></defs><g fill="none" fill-rule="evenodd"><path d="M18.92 3.087a1.642 1.642 0 0 0-.322-3.02 1.651 1.651 0 0 0-1.748.544 1.64 1.64 0 0 0 .815 2.61c.42.123.871.075 1.255-.134zm6.07.869c-.05-.268-.319-.454-.938-.377-3.892.483-6.087.832-14.006 1.69-.647.071-1.19.163-1.251.597-.098.709 1.75.754 3.035 1.055a8.367 8.367 0 0 1 1.903.628.425.425 0 0 1 .183.685c-1.501 2.176-3.527 5.254-4.098 6.363-.565 1.098.388 1.653 1.327.823 2.227-1.969 2.917-2.855 4.91-4.407.273-.212.49-.166.562.159.04.178.082.407.12.686.042.403.041.809-.002 1.211l-.005.04a9.176 9.176 0 0 1-.035.364c-.25 2.244-1.642 4.585-3.145 5.98A9.526 9.526 0 0 0 17.355 17l.017-.004a7.44 7.44 0 0 0 .64-.777 9.524 9.524 0 0 0 1.746-4.11c.067-.342.12-.692.155-1.051.303-3.2 1.645-4.352 4.416-6.059.426-.262.733-.65.66-1.043z" fill="#E30613"/><path d="M15.642 15.846a6.42 6.42 0 0 1-2.825 2.13 7.941 7.941 0 0 1-4.19.345 8.768 8.768 0 0 1-.805-.183C3.417 16.917.76 12.501 1.785 8.105 2.81 3.709 7.157.88 11.661 1.678a.79.79 0 0 0 .736-.261c.18-.211.233-.5.139-.76a.78.78 0 0 0-.599-.498C6.555-.795 1.375 2.63.227 7.901-.92 13.17 2.38 18.389 7.685 19.696a10.396 10.396 0 0 0 5.87-.263c1.516-1.391 2.917-3.73 3.17-5.97a8.97 8.97 0 0 0 .034-.363 5.58 5.58 0 0 1-1.116 2.746z" fill="url(#a)"/></g></svg>